<svg width="180" height="60" viewBox="0 0 180 60" fill="none" xmlns="http://www.w3.org/2000/svg">
  <rect width="180" height="60" rx="12" fill="#0F172A"></rect>
  <g transform="translate(15, 10)">
    <circle cx="20" cy="20" r="20" fill="#3B82F6"></circle>
    <path d="M20 10C16 10 13 13 13 16H17C17 14.9 17.9 14 19 14C20.1 14 21 14.9 21 16C21 18 18 17.75 18 21H22C22 18.5 25 18.25 25 16C25 13 23 10 20 10ZM20 26C18.9 26 18 26.9 18 28C18 29.1 18.9 30 20 30C21.1 30 22 29.1 22 28C22 26.9 21.1 26 20 26Z" fill="white"></path>
  </g>
  <text x="60" y="38" fill="white" font-size="20" font-family="Segoe UI, sans-serif" font-weight="600">
    QuizSchool
  </text>
</svg>
